<svg width="14" height="14" viewBox="0 0 14 14" fill="none" xmlns="http://www.w3.org/2000/svg">
<rect width="14" height="14" rx="7" fill="#479EF5"/>
<path d="M11.1347 10.0762C11.1144 10.1253 11.0843 10.1713 11.0443 10.2113C11.0044 10.2512 10.9583 10.2814 10.9092 10.3017C10.86 10.3221 10.8062 10.3333 10.7497 10.3333H7.41634C7.18622 10.3333 6.99967 10.1468 6.99967 9.91667C6.99967 9.68655 7.18622 9.5 7.41634 9.5H9.74375L6.99967 6.75592L6.0443 7.71129C5.88158 7.87401 5.61776 7.87401 5.45505 7.71129L2.95505 5.21129C2.79233 5.04857 2.79233 4.78476 2.95505 4.62204C3.11777 4.45932 3.38158 4.45932 3.5443 4.62204L5.74967 6.82741L6.70505 5.87204C6.86776 5.70932 7.13158 5.70932 7.2943 5.87204L10.333 8.91074V6.58333C10.333 6.35321 10.5196 6.16667 10.7497 6.16667C10.9798 6.16667 11.1663 6.35321 11.1663 6.58333V9.91626C11.1663 9.91709 11.1663 9.91833 11.1663 9.91916C11.166 9.97475 11.1548 10.0278 11.1347 10.0762Z" fill="white"/>
</svg>
