<svg width="20" height="20" viewBox="0 0 20 20" fill="none" xmlns="http://www.w3.org/2000/svg">
<path d="M7.67492 9.97256L11.0592 2.16746C11.5998 0.920532 13.3832 0.95193 13.8795 2.21711L16.8854 9.88132C17.6044 11.2247 17.7251 12.8707 17.0719 14.3771C15.9342 17.001 12.8797 18.2082 10.2494 17.0734C7.61915 15.9387 6.40919 12.8917 7.54688 10.2678C7.59044 10.1674 7.63681 10.069 7.68586 9.97274L7.67492 9.97256Z" fill="url(#paint0_linear_740_241675)"/>
<path d="M1.25 3.28125H4.86111V15.4688H1.25V3.28125Z" fill="url(#paint1_linear_740_241675)"/>
<g filter="url(#filter0_d_740_241675)">
<path fill-rule="evenodd" clip-rule="evenodd" d="M2.20433 3.28125H1.25V15.4688H2.20433V12.8515H2.98586C3.25232 12.8515 3.46833 12.6436 3.46833 12.3871C3.46833 12.1306 3.25232 11.9227 2.98586 11.9227H2.20433V10.009H3.70156C3.96802 10.009 4.18403 9.80111 4.18403 9.54462C4.18403 9.28813 3.96802 9.08021 3.70156 9.08021H2.20433V7.16616H2.98586C3.25232 7.16616 3.46833 6.95824 3.46833 6.70175C3.46833 6.44526 3.25232 6.23734 2.98586 6.23734H2.20433V3.28125Z" fill="url(#paint2_linear_740_241675)"/>
</g>
<defs>
<filter id="filter0_d_740_241675" x="1.17708" y="3.24479" width="3.22526" height="12.4792" filterUnits="userSpaceOnUse" color-interpolation-filters="sRGB">
<feFlood flood-opacity="0" result="BackgroundImageFix"/>
<feColorMatrix in="SourceAlpha" type="matrix" values="0 0 0 0 0 0 0 0 0 0 0 0 0 0 0 0 0 0 127 0" result="hardAlpha"/>
<feOffset dx="0.0729166" dy="0.109375"/>
<feGaussianBlur stdDeviation="0.0729166"/>
<feComposite in2="hardAlpha" operator="out"/>
<feColorMatrix type="matrix" values="0 0 0 0 0.00720483 0 0 0 0 0.156201 0 0 0 0 0.684462 0 0 0 0.1 0"/>
<feBlend mode="normal" in2="BackgroundImageFix" result="effect1_dropShadow_740_241675"/>
<feBlend mode="normal" in="SourceGraphic" in2="effect1_dropShadow_740_241675" result="shape"/>
</filter>
<linearGradient id="paint0_linear_740_241675" x1="16.8303" y1="16.6929" x2="7.33127" y2="5.79641" gradientUnits="userSpaceOnUse">
<stop stop-color="#1493DF"/>
<stop offset="1" stop-color="#3CCBF4"/>
</linearGradient>
<linearGradient id="paint1_linear_740_241675" x1="5.82917" y1="11.9876" x2="1.57661" y2="11.9876" gradientUnits="userSpaceOnUse">
<stop stop-color="#3DCCF5"/>
<stop offset="1" stop-color="#28AEEA"/>
</linearGradient>
<linearGradient id="paint2_linear_740_241675" x1="0.114107" y1="7.07861" x2="4.18403" y2="7.07861" gradientUnits="userSpaceOnUse">
<stop stop-color="#184F85"/>
<stop offset="1" stop-color="#0F6EB7"/>
</linearGradient>
</defs>
</svg>
