<svg width="10" height="16" viewBox="0 0 10 16" fill="none" xmlns="http://www.w3.org/2000/svg">
<path d="M8.61111 0C8.80208 0 8.98148 0.0333333 9.14931 0.1C9.31713 0.166667 9.4647 0.263889 9.59201 0.391667C9.71933 0.519444 9.81771 0.661111 9.88715 0.816667C9.9566 0.972222 9.99421 1.14444 10 1.33333V14.6667C10 14.85 9.96528 15.0222 9.89583 15.1833C9.82639 15.3444 9.72512 15.4861 9.59201 15.6083C9.45891 15.7306 9.31134 15.825 9.14931 15.8917C8.98727 15.9583 8.80787 15.9944 8.61111 16H1.38889C1.19792 16 1.01852 15.9667 0.850694 15.9C0.68287 15.8333 0.535301 15.7361 0.407986 15.6083C0.280671 15.4806 0.182292 15.3389 0.112847 15.1833C0.0434028 15.0278 0.00578704 14.8556 0 14.6667V1.33333C0 1.15 0.0347222 0.977778 0.104167 0.816667C0.173611 0.655556 0.274884 0.513889 0.407986 0.391667C0.541088 0.269444 0.688657 0.175 0.850694 0.108333C1.01273 0.0416667 1.19213 0.00555556 1.38889 0H8.61111ZM6.11111 14.9333V13.8667H3.88889V14.9333H6.11111ZM8.88889 12.8V1.6H1.11111V12.8H8.88889Z" fill="#FFFFFF"/>
</svg>
