<svg width="14" height="14" viewBox="0 0 14 14" fill="none" xmlns="http://www.w3.org/2000/svg">
<rect width="14" height="14" rx="7" fill="#EFB839"/>
<path d="M1.81543 6.49999C1.53929 6.49999 1.31543 6.72385 1.31543 6.99999C1.31543 7.27613 1.53929 7.49999 1.81543 7.49999V6.49999ZM4.67257 6.99999V7.49999H4.88686L5.03464 7.34482L4.67257 6.99999ZM6.57733 4.99999L6.9394 4.65516L6.57733 4.27499L6.21527 4.65516L6.57733 4.99999ZM8.4821 6.99999L8.12003 7.34482L8.26781 7.49999H8.4821V6.99999ZM1.81543 7.49999H4.67257V6.49999H1.81543V7.49999ZM5.03464 7.34482L6.9394 5.34482L6.21527 4.65516L4.3105 6.65516L5.03464 7.34482ZM6.21527 5.34482L8.12003 7.34482L8.84417 6.65516L6.9394 4.65516L6.21527 5.34482ZM8.4821 7.49999H11.8154V6.49999H8.4821V7.49999Z" fill="white"/>
<path d="M9.70898 4.52504L12.1839 7L9.70898 9.47496" stroke="white" stroke-linecap="round"/>
</svg>
