<svg width="20" height="20" viewBox="0 0 20 20" fill="none" xmlns="http://www.w3.org/2000/svg">
<g filter="url(#filter0_dd_740_241659)">
<path d="M15.2529 3.77174C15.2529 2.14877 13.9451 0.833496 12.3322 0.833496C10.7193 0.833496 9.41152 2.14877 9.41152 3.77174V11.4948C8.52115 12.3026 7.95117 13.4592 7.95117 14.7591C7.95117 17.1943 9.91363 19.1668 12.3322 19.1668C14.7515 19.1668 16.7133 17.1943 16.7133 14.7591C16.7133 13.4592 16.1433 12.3026 15.2529 11.4948V3.77174Z" fill="url(#paint0_linear_740_241659)"/>
</g>
<g filter="url(#filter1_f_740_241659)">
<path fill-rule="evenodd" clip-rule="evenodd" d="M13.5053 2.89319C13.5052 2.89315 13.5052 2.89315 13.5053 2.89318C13.3523 2.81323 13.2931 2.62442 13.3731 2.47147C13.453 2.31852 13.6419 2.25934 13.7948 2.33929C14.0611 2.47851 14.4008 2.90705 14.4008 3.63221C14.4008 4.26254 14.3809 9.38791 14.3709 11.8708C14.3702 12.0434 14.2298 12.1827 14.0572 12.182C13.8846 12.1813 13.7452 12.0409 13.7459 11.8683C13.7559 9.38419 13.7758 4.26088 13.7758 3.63221C13.7758 3.36715 13.7147 3.18456 13.6502 3.06757C13.6176 3.00834 13.5837 2.96513 13.5553 2.93573C13.5412 2.92104 13.5289 2.91034 13.5195 2.90305C13.5108 2.89633 13.5058 2.8935 13.5053 2.89319Z" fill="url(#paint1_linear_740_241659)"/>
</g>
<path fill-rule="evenodd" clip-rule="evenodd" d="M12.3558 2.50537C12.9697 2.50537 13.4674 2.94089 13.4674 3.47812V11.069C13.4674 11.6062 12.9697 12.0417 12.3558 12.0417C11.7418 12.0417 11.2441 11.6062 11.2441 11.069V3.47812C11.2441 2.94089 11.7418 2.50537 12.3558 2.50537Z" fill="black" fill-opacity="0.15"/>
<g filter="url(#filter2_d_740_241659)">
<path d="M13.4058 12.4387C13.4058 10.7986 13.4058 9.66375 13.4058 8.02365C13.4058 7.41553 12.9056 6.91797 12.2942 6.91797C11.6828 6.91797 11.1825 7.41553 11.1825 8.02365C11.1825 9.66375 11.1825 10.7986 11.1825 12.4387C10.3488 12.8533 9.79297 13.6826 9.79297 14.6777C9.79297 16.0598 10.9046 17.1655 12.2942 17.1655C13.6837 17.1655 14.7954 16.0598 14.7954 14.6777C14.7954 13.6826 14.2396 12.8533 13.4058 12.4387Z" fill="url(#paint2_linear_740_241659)"/>
</g>
<path d="M13.3355 12.465C13.3355 10.8249 13.3355 9.69011 13.3355 8.05002C13.3355 7.44189 12.8353 6.94434 12.2239 6.94434C11.6125 6.94434 11.1122 7.44189 11.1122 8.05002C11.1122 9.69011 11.1122 10.8249 11.1122 12.465C10.2785 12.8797 9.72266 13.7089 9.72266 14.704C9.72266 16.0862 10.8343 17.1918 12.2239 17.1918C13.6134 17.1918 14.7251 16.0862 14.7251 14.704C14.7251 13.7089 14.1693 12.8797 13.3355 12.465Z" fill="url(#paint3_linear_740_241659)"/>
<path d="M11.9881 15.8581C12.4337 16.3037 13.1562 16.3037 13.6018 15.8581C14.0474 15.4124 14.0474 14.69 13.6018 14.2444C13.1562 13.7987 12.4337 13.7987 11.9881 14.2444C11.5425 14.69 11.5425 15.4124 11.9881 15.8581Z" fill="url(#paint4_linear_740_241659)"/>
<g filter="url(#filter3_f_740_241659)">
<path fill-rule="evenodd" clip-rule="evenodd" d="M11.875 10.9248C11.875 10.7522 12.0149 10.6123 12.1875 10.6123C14.4029 10.6123 16.1988 12.4082 16.1988 14.6236C16.1988 16.839 14.4029 18.635 12.1875 18.635C12.0149 18.635 11.875 18.4951 11.875 18.3225C11.875 18.1499 12.0149 18.01 12.1875 18.01C14.0577 18.01 15.5738 16.4939 15.5738 14.6236C15.5738 12.7534 14.0577 11.2373 12.1875 11.2373C12.0149 11.2373 11.875 11.0974 11.875 10.9248Z" fill="url(#paint5_linear_740_241659)"/>
</g>
<path d="M3.59973 6.22185C4.02646 5.56283 4.19736 4.90947 4.28912 4.43684C4.31418 4.30773 4.47053 4.25433 4.56658 4.34419C6.3824 6.04298 6.9729 7.3324 7.08987 8.82473C7.17472 10.2549 6.47173 11.5276 4.585 11.5276C2.81362 11.5276 1.5064 10.2913 1.68415 8.33183C1.79917 7.06395 2.32333 6.12302 2.69781 5.6133C2.76516 5.52162 2.90183 5.5307 2.96205 5.62721L3.32937 6.2159C3.39184 6.31601 3.5356 6.3209 3.59973 6.22185Z" fill="url(#paint6_radial_740_241659)"/>
<path d="M3.59973 6.22185C4.02646 5.56283 4.19736 4.90947 4.28912 4.43684C4.31418 4.30773 4.47053 4.25433 4.56658 4.34419C6.3824 6.04298 6.9729 7.3324 7.08987 8.82473C7.17472 10.2549 6.47173 11.5276 4.585 11.5276C2.81362 11.5276 1.5064 10.2913 1.68415 8.33183C1.79917 7.06395 2.32333 6.12302 2.69781 5.6133C2.76516 5.52162 2.90183 5.5307 2.96205 5.62721L3.32937 6.2159C3.39184 6.31601 3.5356 6.3209 3.59973 6.22185Z" fill="url(#paint7_radial_740_241659)" fill-opacity="0.7"/>
<path d="M3.59973 6.22185C4.02646 5.56283 4.19736 4.90947 4.28912 4.43684C4.31418 4.30773 4.47053 4.25433 4.56658 4.34419C6.3824 6.04298 6.9729 7.3324 7.08987 8.82473C7.17472 10.2549 6.47173 11.5276 4.585 11.5276C2.81362 11.5276 1.5064 10.2913 1.68415 8.33183C1.79917 7.06395 2.32333 6.12302 2.69781 5.6133C2.76516 5.52162 2.90183 5.5307 2.96205 5.62721L3.32937 6.2159C3.39184 6.31601 3.5356 6.3209 3.59973 6.22185Z" fill="url(#paint8_linear_740_241659)"/>
<path d="M3.59973 6.22185C4.02646 5.56283 4.19736 4.90947 4.28912 4.43684C4.31418 4.30773 4.47053 4.25433 4.56658 4.34419C6.3824 6.04298 6.9729 7.3324 7.08987 8.82473C7.17472 10.2549 6.47173 11.5276 4.585 11.5276C2.81362 11.5276 1.5064 10.2913 1.68415 8.33183C1.79917 7.06395 2.32333 6.12302 2.69781 5.6133C2.76516 5.52162 2.90183 5.5307 2.96205 5.62721L3.32937 6.2159C3.39184 6.31601 3.5356 6.3209 3.59973 6.22185Z" fill="url(#paint9_radial_740_241659)"/>
<path d="M3.59973 6.22185C4.02646 5.56283 4.19736 4.90947 4.28912 4.43684C4.31418 4.30773 4.47053 4.25433 4.56658 4.34419C6.3824 6.04298 6.9729 7.3324 7.08987 8.82473C7.17472 10.2549 6.47173 11.5276 4.585 11.5276C2.81362 11.5276 1.5064 10.2913 1.68415 8.33183C1.79917 7.06395 2.32333 6.12302 2.69781 5.6133C2.76516 5.52162 2.90183 5.5307 2.96205 5.62721L3.32937 6.2159C3.39184 6.31601 3.5356 6.3209 3.59973 6.22185Z" fill="url(#paint10_radial_740_241659)"/>
<path d="M3.59973 6.22185C4.02646 5.56283 4.19736 4.90947 4.28912 4.43684C4.31418 4.30773 4.47053 4.25433 4.56658 4.34419C6.3824 6.04298 6.9729 7.3324 7.08987 8.82473C7.17472 10.2549 6.47173 11.5276 4.585 11.5276C2.81362 11.5276 1.5064 10.2913 1.68415 8.33183C1.79917 7.06395 2.32333 6.12302 2.69781 5.6133C2.76516 5.52162 2.90183 5.5307 2.96205 5.62721L3.32937 6.2159C3.39184 6.31601 3.5356 6.3209 3.59973 6.22185Z" fill="url(#paint11_radial_740_241659)"/>
<g filter="url(#filter4_i_740_241659)">
<path d="M3.01525 9.1217C3.35382 8.31598 4.0817 7.41638 4.50378 7.01302C4.5626 6.95681 4.65378 6.95656 4.71511 7.01003C5.6347 7.81162 5.89597 8.52389 6.1161 9.35951C6.33485 10.1899 6.11611 11.5278 4.47009 11.5278C3.05256 11.5278 2.56151 10.2015 3.01525 9.1217Z" fill="url(#paint12_radial_740_241659)"/>
<path d="M3.01525 9.1217C3.35382 8.31598 4.0817 7.41638 4.50378 7.01302C4.5626 6.95681 4.65378 6.95656 4.71511 7.01003C5.6347 7.81162 5.89597 8.52389 6.1161 9.35951C6.33485 10.1899 6.11611 11.5278 4.47009 11.5278C3.05256 11.5278 2.56151 10.2015 3.01525 9.1217Z" fill="url(#paint13_radial_740_241659)"/>
<path d="M3.01525 9.1217C3.35382 8.31598 4.0817 7.41638 4.50378 7.01302C4.5626 6.95681 4.65378 6.95656 4.71511 7.01003C5.6347 7.81162 5.89597 8.52389 6.1161 9.35951C6.33485 10.1899 6.11611 11.5278 4.47009 11.5278C3.05256 11.5278 2.56151 10.2015 3.01525 9.1217Z" fill="url(#paint14_radial_740_241659)"/>
</g>
<path d="M3.01525 9.1217C3.35382 8.31598 4.0817 7.41638 4.50378 7.01302C4.5626 6.95681 4.65378 6.95656 4.71511 7.01003C5.6347 7.81162 5.89597 8.52389 6.1161 9.35951C6.33485 10.1899 6.11611 11.5278 4.47009 11.5278C3.05256 11.5278 2.56151 10.2015 3.01525 9.1217Z" fill="url(#paint15_linear_740_241659)"/>
<path d="M3.01525 9.1217C3.35382 8.31598 4.0817 7.41638 4.50378 7.01302C4.5626 6.95681 4.65378 6.95656 4.71511 7.01003C5.6347 7.81162 5.89597 8.52389 6.1161 9.35951C6.33485 10.1899 6.11611 11.5278 4.47009 11.5278C3.05256 11.5278 2.56151 10.2015 3.01525 9.1217Z" fill="url(#paint16_radial_740_241659)"/>
<g opacity="0.6" filter="url(#filter5_f_740_241659)">
<path d="M3.30635 6.76868C3.90504 5.89213 4.25516 4.94394 4.36207 4.70996C4.20616 5.90837 3.7518 6.78578 2.89653 7.91571C2.21232 8.81965 2.08878 9.5935 2.09472 9.78182C1.88091 8.34373 2.55799 7.86436 3.30635 6.76868Z" fill="url(#paint17_linear_740_241659)"/>
</g>
<g filter="url(#filter6_f_740_241659)">
<path d="M2.78934 5.82128C2.45319 6.23852 1.78502 7.39586 1.80157 8.68724C2.1329 7.36274 2.90712 6.94535 2.78934 5.82128Z" fill="url(#paint18_linear_740_241659)"/>
</g>
<defs>
<filter id="filter0_dd_740_241659" x="7.53451" y="0.416829" width="10.0117" height="19.4168" filterUnits="userSpaceOnUse" color-interpolation-filters="sRGB">
<feFlood flood-opacity="0" result="BackgroundImageFix"/>
<feColorMatrix in="SourceAlpha" type="matrix" values="0 0 0 0 0 0 0 0 0 0 0 0 0 0 0 0 0 0 127 0" result="hardAlpha"/>
<feOffset/>
<feGaussianBlur stdDeviation="0.208333"/>
<feColorMatrix type="matrix" values="0 0 0 0 0 0 0 0 0 0 0 0 0 0 0 0 0 0 0.2 0"/>
<feBlend mode="normal" in2="BackgroundImageFix" result="effect1_dropShadow_740_241659"/>
<feColorMatrix in="SourceAlpha" type="matrix" values="0 0 0 0 0 0 0 0 0 0 0 0 0 0 0 0 0 0 127 0" result="hardAlpha"/>
<feOffset dx="0.416667" dy="0.25"/>
<feGaussianBlur stdDeviation="0.208333"/>
<feColorMatrix type="matrix" values="0 0 0 0 0 0 0 0 0 0 0 0 0 0 0 0 0 0 0.15 0"/>
<feBlend mode="normal" in2="effect1_dropShadow_740_241659" result="effect2_dropShadow_740_241659"/>
<feBlend mode="normal" in="SourceGraphic" in2="effect2_dropShadow_740_241659" result="shape"/>
</filter>
<filter id="filter1_f_740_241659" x="12.7129" y="1.67871" width="2.3125" height="11.1284" filterUnits="userSpaceOnUse" color-interpolation-filters="sRGB">
<feFlood flood-opacity="0" result="BackgroundImageFix"/>
<feBlend mode="normal" in="SourceGraphic" in2="BackgroundImageFix" result="shape"/>
<feGaussianBlur stdDeviation="0.3125" result="effect1_foregroundBlur_740_241659"/>
</filter>
<filter id="filter2_d_740_241659" x="9.6263" y="6.91797" width="5.33529" height="10.5809" filterUnits="userSpaceOnUse" color-interpolation-filters="sRGB">
<feFlood flood-opacity="0" result="BackgroundImageFix"/>
<feColorMatrix in="SourceAlpha" type="matrix" values="0 0 0 0 0 0 0 0 0 0 0 0 0 0 0 0 0 0 127 0" result="hardAlpha"/>
<feOffset dy="0.166667"/>
<feGaussianBlur stdDeviation="0.0833333"/>
<feComposite in2="hardAlpha" operator="out"/>
<feColorMatrix type="matrix" values="0 0 0 0 0.7 0 0 0 0 0.215833 0 0 0 0 0.215833 0 0 0 1 0"/>
<feBlend mode="normal" in2="BackgroundImageFix" result="effect1_dropShadow_740_241659"/>
<feBlend mode="normal" in="SourceGraphic" in2="effect1_dropShadow_740_241659" result="shape"/>
</filter>
<filter id="filter3_f_740_241659" x="11.25" y="9.9873" width="5.57422" height="9.27246" filterUnits="userSpaceOnUse" color-interpolation-filters="sRGB">
<feFlood flood-opacity="0" result="BackgroundImageFix"/>
<feBlend mode="normal" in="SourceGraphic" in2="BackgroundImageFix" result="shape"/>
<feGaussianBlur stdDeviation="0.3125" result="effect1_foregroundBlur_740_241659"/>
</filter>
<filter id="filter4_i_740_241659" x="2.85156" y="6.97021" width="3.7526" height="4.55762" filterUnits="userSpaceOnUse" color-interpolation-filters="sRGB">
<feFlood flood-opacity="0" result="BackgroundImageFix"/>
<feBlend mode="normal" in="SourceGraphic" in2="BackgroundImageFix" result="shape"/>
<feColorMatrix in="SourceAlpha" type="matrix" values="0 0 0 0 0 0 0 0 0 0 0 0 0 0 0 0 0 0 127 0" result="hardAlpha"/>
<feOffset dx="0.416667"/>
<feGaussianBlur stdDeviation="0.208333"/>
<feComposite in2="hardAlpha" operator="arithmetic" k2="-1" k3="1"/>
<feColorMatrix type="matrix" values="0 0 0 0 0.952941 0 0 0 0 0.615686 0 0 0 0 0.364706 0 0 0 0.6 0"/>
<feBlend mode="normal" in2="shape" result="effect1_innerShadow_740_241659"/>
</filter>
<filter id="filter5_f_740_241659" x="1.01302" y="3.66829" width="4.38997" height="7.15511" filterUnits="userSpaceOnUse" color-interpolation-filters="sRGB">
<feFlood flood-opacity="0" result="BackgroundImageFix"/>
<feBlend mode="normal" in="SourceGraphic" in2="BackgroundImageFix" result="shape"/>
<feGaussianBlur stdDeviation="0.520833" result="effect1_foregroundBlur_740_241659"/>
</filter>
<filter id="filter6_f_740_241659" x="0.550781" y="4.57129" width="3.5" height="5.36572" filterUnits="userSpaceOnUse" color-interpolation-filters="sRGB">
<feFlood flood-opacity="0" result="BackgroundImageFix"/>
<feBlend mode="normal" in="SourceGraphic" in2="BackgroundImageFix" result="shape"/>
<feGaussianBlur stdDeviation="0.625" result="effect1_foregroundBlur_740_241659"/>
</filter>
<linearGradient id="paint0_linear_740_241659" x1="9.41288" y1="11.3872" x2="14.9611" y2="11.3872" gradientUnits="userSpaceOnUse">
<stop stop-color="#BADBFF"/>
<stop offset="1" stop-color="#D5EEFF"/>
</linearGradient>
<linearGradient id="paint1_linear_740_241659" x1="13.66" y1="1.51062" x2="9.21544" y2="9.61437" gradientUnits="userSpaceOnUse">
<stop stop-color="#C8F6FF" stop-opacity="0"/>
<stop offset="0.321794" stop-color="#C8F6FF"/>
</linearGradient>
<linearGradient id="paint2_linear_740_241659" x1="8.54236" y1="16.5319" x2="13.4974" y2="15.6274" gradientUnits="userSpaceOnUse">
<stop offset="0.0520833" stop-color="#ED7474"/>
<stop offset="0.385417" stop-color="#FF8787"/>
<stop offset="0.921875" stop-color="#FFACAC"/>
</linearGradient>
<linearGradient id="paint3_linear_740_241659" x1="8.50733" y1="13.3991" x2="13.0169" y2="15.3086" gradientUnits="userSpaceOnUse">
<stop offset="0.395833" stop-color="#FF285E" stop-opacity="0.71"/>
<stop offset="1" stop-color="#BC2238"/>
</linearGradient>
<linearGradient id="paint4_linear_740_241659" x1="13.3145" y1="13.9571" x2="11.7008" y2="15.5708" gradientUnits="userSpaceOnUse">
<stop stop-color="white"/>
<stop offset="0.733331" stop-color="white" stop-opacity="0.1"/>
</linearGradient>
<linearGradient id="paint5_linear_740_241659" x1="13.2594" y1="14.1138" x2="16.1332" y2="14.1131" gradientUnits="userSpaceOnUse">
<stop stop-color="#C8F6FF" stop-opacity="0"/>
<stop offset="0.989832" stop-color="#C8F6FF"/>
</linearGradient>
<radialGradient id="paint6_radial_740_241659" cx="0" cy="0" r="1" gradientUnits="userSpaceOnUse" gradientTransform="translate(6.45714 8.88399) rotate(-179.474) scale(4.42119 6.66746)">
<stop stop-color="#FF953D"/>
<stop offset="1" stop-color="#FF486D"/>
</radialGradient>
<radialGradient id="paint7_radial_740_241659" cx="0" cy="0" r="1" gradientUnits="userSpaceOnUse" gradientTransform="translate(2.93291 7.83288) rotate(-157.937) scale(2.67466 4.61531)">
<stop stop-color="#CE2727"/>
<stop offset="1" stop-color="#CE5327" stop-opacity="0"/>
</radialGradient>
<linearGradient id="paint8_linear_740_241659" x1="4.99213" y1="11.5276" x2="4.99213" y2="10.2093" gradientUnits="userSpaceOnUse">
<stop stop-color="#FF3F52"/>
<stop offset="1" stop-color="#FF7583" stop-opacity="0"/>
</linearGradient>
<radialGradient id="paint9_radial_740_241659" cx="0" cy="0" r="1" gradientUnits="userSpaceOnUse" gradientTransform="translate(1.53269 7.50617) rotate(24.0149) scale(0.802764 6.64496)">
<stop stop-color="#F76414"/>
<stop offset="1" stop-color="#FFAA7B" stop-opacity="0"/>
</radialGradient>
<radialGradient id="paint10_radial_740_241659" cx="0" cy="0" r="1" gradientUnits="userSpaceOnUse" gradientTransform="translate(3.84503 5.02592) rotate(25.3285) scale(0.594434 1.19291)">
<stop stop-color="#FF846C"/>
<stop offset="1" stop-color="#FF846C" stop-opacity="0"/>
</radialGradient>
<radialGradient id="paint11_radial_740_241659" cx="0" cy="0" r="1" gradientUnits="userSpaceOnUse" gradientTransform="translate(3.47208 5.90776) rotate(113.224) scale(0.589114 0.135002)">
<stop stop-color="#FFA682"/>
<stop offset="1" stop-color="#FFA682" stop-opacity="0"/>
</radialGradient>
<radialGradient id="paint12_radial_740_241659" cx="0" cy="0" r="1" gradientUnits="userSpaceOnUse" gradientTransform="translate(5.63744 10.1917) rotate(-168.558) scale(2.38502 2.97003)">
<stop stop-color="#FDDF53"/>
<stop offset="1" stop-color="#FF8E41"/>
</radialGradient>
<radialGradient id="paint13_radial_740_241659" cx="0" cy="0" r="1" gradientUnits="userSpaceOnUse" gradientTransform="translate(3.54394 6.43819) rotate(69.0442) scale(3.36323 2.92219)">
<stop stop-color="#FF7C65"/>
<stop offset="1" stop-color="#FF6B4E" stop-opacity="0"/>
</radialGradient>
<radialGradient id="paint14_radial_740_241659" cx="0" cy="0" r="1" gradientUnits="userSpaceOnUse" gradientTransform="translate(5.17001 9.30052) rotate(174.239) scale(2.33022 5.70539)">
<stop offset="0.627719" stop-color="#D7812D" stop-opacity="0"/>
<stop offset="1" stop-color="#D7812D"/>
</radialGradient>
<linearGradient id="paint15_linear_740_241659" x1="4.51926" y1="6.91846" x2="4.51926" y2="7.78582" gradientUnits="userSpaceOnUse">
<stop stop-color="#F95131"/>
<stop offset="1" stop-color="#F95131" stop-opacity="0"/>
</linearGradient>
<radialGradient id="paint16_radial_740_241659" cx="0" cy="0" r="1" gradientUnits="userSpaceOnUse" gradientTransform="translate(6.06101 8.86616) rotate(143.063) scale(3.81793 2.76273)">
<stop offset="0.772305" stop-color="#F18A52" stop-opacity="0"/>
<stop offset="1" stop-color="#F18A52"/>
</radialGradient>
<linearGradient id="paint17_linear_740_241659" x1="4.12914" y1="4.88544" x2="2.23118" y2="9.66292" gradientUnits="userSpaceOnUse">
<stop stop-color="#FF7558"/>
<stop offset="1" stop-color="#F38758"/>
</linearGradient>
<linearGradient id="paint18_linear_740_241659" x1="2.71883" y1="5.89096" x2="1.69519" y2="8.82197" gradientUnits="userSpaceOnUse">
<stop stop-color="#FF815B"/>
<stop offset="1" stop-color="#FF9C6D"/>
</linearGradient>
</defs>
</svg>
