<svg width="14" height="14" viewBox="0 0 14 14" fill="none" xmlns="http://www.w3.org/2000/svg">
<rect width="14" height="14" rx="7" fill="#F7630C"/>
<path d="M11.1347 3.92384C11.1144 3.8747 11.0843 3.82866 11.0443 3.78871C11.0044 3.74876 10.9583 3.71862 10.9092 3.69828C10.86 3.67791 10.8062 3.66667 10.7497 3.66667H7.41634C7.18622 3.66667 6.99967 3.85322 6.99967 4.08333C6.99967 4.31345 7.18622 4.5 7.41634 4.5H9.74375L6.99967 7.24408L6.0443 6.28871C5.88158 6.12599 5.61776 6.12599 5.45505 6.28871L2.95505 8.78871C2.79233 8.95143 2.79233 9.21524 2.95505 9.37796C3.11777 9.54068 3.38158 9.54068 3.5443 9.37796L5.74967 7.17259L6.70505 8.12796C6.86776 8.29068 7.13158 8.29068 7.2943 8.12796L10.333 5.08926V7.41667C10.333 7.64679 10.5196 7.83333 10.7497 7.83333C10.9798 7.83333 11.1663 7.64679 11.1663 7.41667V4.08374C11.1663 4.08291 11.1663 4.08167 11.1663 4.08084C11.166 4.02525 11.1548 3.97224 11.1347 3.92384Z" fill="white"/>
</svg>
